<?xml version="1.0" standalone="no"?>
<!DOCTYPE svg PUBLIC "-//W3C//DTD SVG 20010904//EN"
 "http://www.w3.org/TR/2001/REC-SVG-20010904/DTD/svg10.dtd">
<svg version="1.0" xmlns="http://www.w3.org/2000/svg"
 width="1024.000000pt" height="1024.000000pt" viewBox="0 0 1024.000000 1024.000000"
 preserveAspectRatio="xMidYMid meet">
<metadata>
Created by potrace 1.11, written by Peter Selinger 2001-2013
</metadata>
<g transform="translate(0.000000,1024.000000) scale(0.100000,-0.100000)"
fill="#000000" stroke="none">
<path d="M2620 9215 c-280 -40 -544 -140 -775 -292 -457 -301 -758 -792 -825
-1343 -6 -55 -10 -899 -10 -2460 0 -1991 3 -2392 15 -2481 93 -700 568 -1284
1235 -1517 63 -22 181 -54 263 -71 l147 -31 2444 0 2443 0 149 31 c352 74 646
220 899 447 299 269 496 617 584 1035 l31 147 0 2445 0 2445 -31 147 c-40 191
-84 316 -169 488 -274 551 -805 929 -1419 1010 -147 20 -4847 20 -4981 0z
m2720 -594 c0 -5 24 -11 53 -15 28 -4 72 -13 97 -21 25 -8 97 -31 160 -51 63
-20 120 -40 125 -44 6 -4 42 -24 80 -45 136 -73 161 -90 281 -186 82 -67 147
-131 205 -201 119 -144 129 -159 194 -283 32 -60 61 -114 65 -120 4 -5 17 -44
30 -85 13 -41 34 -109 47 -150 49 -152 64 -350 44 -595 -12 -152 -67 -439
-115 -605 -43 -148 -116 -375 -136 -422 -5 -13 -25 -66 -45 -118 -20 -52 -40
-104 -45 -115 -8 -19 -28 -69 -72 -180 -10 -27 -23 -59 -28 -70 -5 -11 -20
-50 -34 -87 -14 -36 -50 -117 -80 -180 -29 -62 -63 -135 -76 -163 -79 -173
-185 -390 -285 -580 -29 -55 -81 -154 -115 -220 -34 -66 -71 -133 -80 -150
-10 -16 -30 -52 -45 -80 -107 -192 -162 -288 -288 -502 -110 -188 -146 -242
-162 -242 -15 0 -43 38 -115 160 -52 88 -103 173 -112 187 -10 15 -21 34 -25
42 -4 8 -42 75 -85 149 -43 73 -78 135 -78 137 0 2 -14 27 -31 56 -40 68 -70
122 -154 283 -37 72 -82 157 -100 190 -65 120 -180 354 -274 557 -16 34 -54
116 -85 181 -31 65 -56 120 -56 123 0 3 -8 24 -18 47 -23 53 -35 83 -117 292
-37 94 -76 192 -86 218 -25 60 -131 389 -153 477 -10 36 -23 88 -31 115 -13
51 -31 135 -60 281 -52 271 -45 621 18 814 13 41 34 109 47 150 13 41 26 80
30 85 4 6 33 60 65 120 65 124 75 139 194 283 58 70 123 134 205 201 120 96
145 113 281 186 39 21 75 41 80 45 6 4 62 24 125 44 63 20 135 43 160 51 25 8
69 17 98 21 28 4 52 10 52 15 0 5 101 9 225 9 124 0 225 -4 225 -9z m-1772
-4333 c7 -7 12 -23 12 -37 0 -24 12 -88 46 -255 17 -84 14 -88 -71 -106 -188
-38 -299 -63 -370 -85 -27 -8 -70 -20 -95 -26 -25 -6 -61 -17 -80 -24 -19 -7
-75 -28 -125 -45 -236 -85 -405 -180 -503 -284 -47 -49 -52 -59 -52 -100 0
-36 6 -52 31 -80 133 -152 473 -299 959 -414 118 -28 262 -58 320 -67 58 -9
139 -23 180 -30 41 -8 165 -23 275 -35 110 -11 245 -25 300 -31 168 -18 703
-28 1049 -18 181 5 336 11 345 13 9 3 75 10 146 16 186 15 388 38 475 54 41 8
122 21 180 31 155 24 518 112 650 157 63 22 129 43 145 48 162 47 404 184 484
276 71 80 21 184 -140 289 -97 64 -223 125 -339 166 -36 12 -90 31 -120 41
-30 11 -77 26 -105 33 -27 7 -93 24 -145 37 -88 23 -139 35 -325 75 -38 8 -77
18 -85 23 -18 9 -18 17 9 160 13 63 25 136 28 162 8 66 20 74 91 59 283 -59
346 -73 392 -87 25 -7 79 -23 120 -34 101 -28 184 -55 250 -80 30 -12 66 -25
80 -30 65 -21 275 -123 338 -164 96 -61 170 -121 229 -185 62 -68 143 -208
143 -248 0 -12 5 -25 10 -28 12 -8 13 -217 1 -231 -5 -5 -19 -34 -32 -64 -50
-121 -150 -230 -309 -337 -77 -52 -236 -139 -280 -153 -14 -5 -50 -18 -80 -30
-30 -12 -68 -26 -85 -31 -16 -5 -39 -13 -50 -18 -76 -33 -161 -60 -302 -95
-35 -9 -91 -23 -125 -32 -35 -8 -85 -21 -113 -29 -51 -14 -197 -40 -385 -69
-58 -9 -145 -23 -195 -31 -89 -14 -214 -26 -470 -45 -71 -5 -157 -15 -190 -22
-85 -18 -1053 -18 -1145 0 -36 7 -119 16 -185 21 -256 20 -383 32 -470 46 -49
8 -137 22 -195 31 -188 29 -334 55 -385 69 -49 13 -122 32 -240 61 -136 34
-224 62 -300 95 -11 5 -33 13 -50 18 -16 5 -55 19 -85 31 -30 12 -66 25 -80
30 -44 14 -203 101 -280 153 -159 107 -259 216 -309 337 -13 30 -27 59 -32 65
-12 12 -12 245 0 245 5 0 13 15 16 33 10 42 59 131 104 185 44 53 209 190 271
224 155 86 205 111 295 148 242 100 386 142 770 226 44 9 94 20 110 25 44 11
60 10 73 -3z"/>
<path d="M4775 8024 c-96 -34 -165 -132 -165 -233 1 -171 162 -288 331 -241
54 15 122 80 149 142 43 99 10 229 -73 292 -70 54 -162 69 -242 40z"/>
<path d="M4845 7461 c-75 -35 -115 -95 -115 -175 0 -36 122 -652 150 -756 11
-40 61 -94 103 -109 18 -7 152 -11 367 -11 l339 0 178 -312 c98 -172 190 -326
204 -342 35 -40 117 -48 167 -16 39 24 66 82 58 121 -3 16 -106 202 -228 415
-191 331 -228 391 -262 413 l-39 26 -257 3 -257 3 -22 107 c-13 59 -25 117
-28 130 l-5 22 195 0 c108 0 207 4 221 10 65 24 82 118 31 169 l-25 26 -232 5
-232 5 -9 40 c-21 96 -39 146 -64 176 -55 65 -158 87 -238 50z"/>
<path d="M4477 7156 c-248 -104 -441 -324 -508 -581 -30 -115 -30 -290 0 -403
105 -398 484 -671 901 -649 356 19 657 231 781 550 56 144 49 201 -28 233 -73
31 -126 -8 -162 -121 -82 -257 -322 -437 -601 -452 -126 -7 -218 13 -340 73
-230 114 -373 355 -356 599 16 241 153 438 382 550 104 51 124 78 108 142 -18
73 -88 96 -177 59z"/>
</g>
</svg>
